<svg width="515" height="268" viewBox="0 0 515 268" fill="none" xmlns="http://www.w3.org/2000/svg">
<rect width="515" height="268" fill="#1E1E1E"/>
<g clip-path="url(#clip0_0_1)">
<rect width="1440" height="1024" transform="translate(-779 -189)" fill="white"/>
<rect x="235.5" y="0.5" width="122" height="226" rx="3.5" stroke="black"/>
<rect x="275.5" y="20.5" width="122" height="226" rx="3.5" stroke="black"/>
<rect x="319.5" y="41.5" width="122" height="226" rx="3.5" fill="white" stroke="black"/>
<rect x="327" y="58" width="110" height="20" rx="4" fill="#B3B7BD"/>
<circle cx="251.5" cy="17.5" r="6" stroke="black"/>
<circle cx="251.5" cy="34.5" r="6" stroke="black"/>
<circle cx="251.5" cy="51.5" r="6" stroke="black"/>
<rect x="242.5" y="9.5" width="18" height="50" rx="3.5" stroke="black"/>
<path d="M335.409 73V61.3636H339.341C340.25 61.3636 340.996 61.5189 341.58 61.8295C342.163 62.1364 342.595 62.5587 342.875 63.0966C343.155 63.6345 343.295 64.2462 343.295 64.9318C343.295 65.6174 343.155 66.2254 342.875 66.7557C342.595 67.286 342.165 67.7027 341.585 68.0057C341.006 68.3049 340.265 68.4545 339.364 68.4545H336.182V67.1818H339.318C339.939 67.1818 340.439 67.0909 340.818 66.9091C341.201 66.7273 341.477 66.4697 341.648 66.1364C341.822 65.7992 341.909 65.3977 341.909 64.9318C341.909 64.4659 341.822 64.0587 341.648 63.7102C341.473 63.3617 341.195 63.0928 340.812 62.9034C340.43 62.7102 339.924 62.6136 339.295 62.6136H336.818V73H335.409ZM340.886 67.7727L343.75 73H342.114L339.295 67.7727H340.886ZM349.027 73.1818C348.186 73.1818 347.461 72.9962 346.851 72.625C346.245 72.25 345.777 71.7273 345.447 71.0568C345.122 70.3826 344.959 69.5985 344.959 68.7045C344.959 67.8106 345.122 67.0227 345.447 66.3409C345.777 65.6553 346.235 65.1212 346.822 64.7386C347.413 64.3523 348.103 64.1591 348.891 64.1591C349.345 64.1591 349.794 64.2348 350.237 64.3864C350.68 64.5379 351.084 64.7841 351.447 65.125C351.811 65.4621 352.101 65.9091 352.317 66.4659C352.533 67.0227 352.641 67.7083 352.641 68.5227V69.0909H345.913V67.9318H351.277C351.277 67.4394 351.179 67 350.982 66.6136C350.788 66.2273 350.512 65.9223 350.152 65.6989C349.796 65.4754 349.375 65.3636 348.891 65.3636C348.357 65.3636 347.894 65.4962 347.504 65.7614C347.118 66.0227 346.821 66.3636 346.612 66.7841C346.404 67.2045 346.3 67.6553 346.3 68.1364V68.9091C346.3 69.5682 346.413 70.1269 346.641 70.5852C346.872 71.0398 347.192 71.3864 347.601 71.625C348.01 71.8598 348.485 71.9773 349.027 71.9773C349.379 71.9773 349.697 71.928 349.982 71.8295C350.269 71.7273 350.518 71.5758 350.726 71.375C350.934 71.1705 351.095 70.9167 351.209 70.6136L352.504 70.9773C352.368 71.4167 352.139 71.803 351.817 72.1364C351.495 72.4659 351.097 72.7235 350.624 72.9091C350.15 73.0909 349.618 73.1818 349.027 73.1818ZM357.249 73.2045C356.696 73.2045 356.194 73.1004 355.743 72.892C355.292 72.6799 354.934 72.375 354.669 71.9773C354.404 71.5758 354.271 71.0909 354.271 70.5227C354.271 70.0227 354.37 69.6174 354.567 69.3068C354.764 68.9924 355.027 68.7462 355.357 68.5682C355.686 68.3902 356.05 68.2576 356.447 68.1705C356.849 68.0795 357.252 68.0076 357.658 67.9545C358.188 67.8864 358.618 67.8352 358.947 67.8011C359.281 67.7633 359.523 67.7008 359.675 67.6136C359.83 67.5265 359.908 67.375 359.908 67.1591V67.1136C359.908 66.553 359.754 66.1174 359.447 65.8068C359.144 65.4962 358.684 65.3409 358.067 65.3409C357.427 65.3409 356.925 65.4811 356.561 65.7614C356.197 66.0417 355.942 66.3409 355.794 66.6591L354.521 66.2045C354.749 65.6742 355.052 65.2614 355.43 64.9659C355.813 64.6667 356.23 64.4583 356.68 64.3409C357.135 64.2197 357.582 64.1591 358.021 64.1591C358.302 64.1591 358.624 64.1932 358.987 64.2614C359.355 64.3258 359.709 64.4602 360.05 64.6648C360.394 64.8693 360.68 65.178 360.908 65.5909C361.135 66.0038 361.249 66.5568 361.249 67.25V73H359.908V71.8182H359.839C359.749 72.0076 359.597 72.2102 359.385 72.4261C359.173 72.642 358.891 72.8258 358.538 72.9773C358.186 73.1288 357.756 73.2045 357.249 73.2045ZM357.453 72C357.983 72 358.43 71.8958 358.794 71.6875C359.161 71.4792 359.438 71.2102 359.624 70.8807C359.813 70.5511 359.908 70.2045 359.908 69.8409V68.6136C359.851 68.6818 359.726 68.7443 359.533 68.8011C359.343 68.8542 359.124 68.9015 358.874 68.9432C358.627 68.9811 358.387 69.0152 358.152 69.0455C357.921 69.072 357.733 69.0947 357.589 69.1136C357.241 69.1591 356.915 69.233 356.612 69.3352C356.313 69.4337 356.071 69.5833 355.885 69.7841C355.703 69.9811 355.612 70.25 355.612 70.5909C355.612 71.0568 355.785 71.4091 356.129 71.6477C356.478 71.8826 356.919 72 357.453 72ZM367.241 73.1818C366.423 73.1818 365.719 72.9886 365.128 72.6023C364.537 72.2159 364.082 71.6837 363.764 71.0057C363.446 70.3277 363.287 69.553 363.287 68.6818C363.287 67.7955 363.45 67.0133 363.776 66.3352C364.105 65.6534 364.563 65.1212 365.151 64.7386C365.741 64.3523 366.431 64.1591 367.219 64.1591C367.832 64.1591 368.385 64.2727 368.878 64.5C369.37 64.7273 369.774 65.0455 370.088 65.4545C370.402 65.8636 370.598 66.3409 370.673 66.8864H369.332C369.23 66.4886 369.003 66.1364 368.651 65.8295C368.302 65.5189 367.832 65.3636 367.241 65.3636C366.719 65.3636 366.26 65.5 365.866 65.7727C365.476 66.0417 365.171 66.4223 364.952 66.9148C364.736 67.4034 364.628 67.9773 364.628 68.6364C364.628 69.3106 364.734 69.8977 364.946 70.3977C365.162 70.8977 365.465 71.286 365.855 71.5625C366.249 71.839 366.711 71.9773 367.241 71.9773C367.59 71.9773 367.906 71.9167 368.19 71.7955C368.474 71.6742 368.715 71.5 368.912 71.2727C369.109 71.0455 369.249 70.7727 369.332 70.4545H370.673C370.598 70.9697 370.41 71.4337 370.111 71.8466C369.815 72.2557 369.423 72.5814 368.935 72.8239C368.45 73.0625 367.885 73.1818 367.241 73.1818ZM376.429 64.2727V65.4091H371.906V64.2727H376.429ZM373.224 62.1818H374.565V70.5C374.565 70.8788 374.62 71.1629 374.73 71.3523C374.844 71.5379 374.988 71.6629 375.162 71.7273C375.34 71.7879 375.527 71.8182 375.724 71.8182C375.872 71.8182 375.993 71.8106 376.088 71.7955C376.183 71.7765 376.259 71.7614 376.315 71.75L376.588 72.9545C376.497 72.9886 376.37 73.0227 376.207 73.0568C376.045 73.0947 375.838 73.1136 375.588 73.1136C375.209 73.1136 374.838 73.0322 374.474 72.8693C374.115 72.7064 373.815 72.4583 373.577 72.125C373.342 71.7917 373.224 71.3712 373.224 70.8636V62.1818ZM383.134 67.3864V68.6364H378.043V67.3864H383.134ZM394.902 61.3636V73H393.538L387.197 63.8636H387.084V73H385.675V61.3636H387.038L393.402 70.5227H393.516V61.3636H394.902ZM400.108 73.2045C399.555 73.2045 399.053 73.1004 398.602 72.892C398.152 72.6799 397.794 72.375 397.528 71.9773C397.263 71.5758 397.131 71.0909 397.131 70.5227C397.131 70.0227 397.229 69.6174 397.426 69.3068C397.623 68.9924 397.886 68.7462 398.216 68.5682C398.545 68.3902 398.909 68.2576 399.307 68.1705C399.708 68.0795 400.112 68.0076 400.517 67.9545C401.047 67.8864 401.477 67.8352 401.807 67.8011C402.14 67.7633 402.383 67.7008 402.534 67.6136C402.689 67.5265 402.767 67.375 402.767 67.1591V67.1136C402.767 66.553 402.614 66.1174 402.307 65.8068C402.004 65.4962 401.544 65.3409 400.926 65.3409C400.286 65.3409 399.784 65.4811 399.42 65.7614C399.057 66.0417 398.801 66.3409 398.653 66.6591L397.381 66.2045C397.608 65.6742 397.911 65.2614 398.29 64.9659C398.672 64.6667 399.089 64.4583 399.54 64.3409C399.994 64.2197 400.441 64.1591 400.881 64.1591C401.161 64.1591 401.483 64.1932 401.847 64.2614C402.214 64.3258 402.568 64.4602 402.909 64.6648C403.254 64.8693 403.54 65.178 403.767 65.5909C403.994 66.0038 404.108 66.5568 404.108 67.25V73H402.767V71.8182H402.699C402.608 72.0076 402.456 72.2102 402.244 72.4261C402.032 72.642 401.75 72.8258 401.398 72.9773C401.045 73.1288 400.616 73.2045 400.108 73.2045ZM400.312 72C400.843 72 401.29 71.8958 401.653 71.6875C402.021 71.4792 402.297 71.2102 402.483 70.8807C402.672 70.5511 402.767 70.2045 402.767 69.8409V68.6136C402.71 68.6818 402.585 68.7443 402.392 68.8011C402.203 68.8542 401.983 68.9015 401.733 68.9432C401.487 68.9811 401.246 69.0152 401.011 69.0455C400.78 69.072 400.593 69.0947 400.449 69.1136C400.1 69.1591 399.775 69.233 399.472 69.3352C399.172 69.4337 398.93 69.5833 398.744 69.7841C398.563 69.9811 398.472 70.25 398.472 70.5909C398.472 71.0568 398.644 71.4091 398.989 71.6477C399.337 71.8826 399.778 72 400.312 72ZM410.351 64.2727V65.4091H405.828V64.2727H410.351ZM407.146 62.1818H408.487V70.5C408.487 70.8788 408.542 71.1629 408.652 71.3523C408.766 71.5379 408.91 71.6629 409.084 71.7273C409.262 71.7879 409.449 71.8182 409.646 71.8182C409.794 71.8182 409.915 71.8106 410.01 71.7955C410.105 71.7765 410.18 71.7614 410.237 71.75L410.51 72.9545C410.419 72.9886 410.292 73.0227 410.129 73.0568C409.966 73.0947 409.76 73.1136 409.51 73.1136C409.131 73.1136 408.76 73.0322 408.396 72.8693C408.036 72.7064 407.737 72.4583 407.499 72.125C407.264 71.7917 407.146 71.3712 407.146 70.8636V62.1818ZM412.368 73V64.2727H413.709V73H412.368ZM413.05 62.8182C412.788 62.8182 412.563 62.7292 412.374 62.5511C412.188 62.3731 412.095 62.1591 412.095 61.9091C412.095 61.6591 412.188 61.4451 412.374 61.267C412.563 61.089 412.788 61 413.05 61C413.311 61 413.535 61.089 413.72 61.267C413.91 61.4451 414.004 61.6591 414.004 61.9091C414.004 62.1591 413.91 62.3731 413.72 62.5511C413.535 62.7292 413.311 62.8182 413.05 62.8182ZM423.301 64.2727L420.074 73H418.71L415.483 64.2727H416.938L419.347 71.2273H419.438L421.847 64.2727H423.301ZM428.418 73.1818C427.577 73.1818 426.851 72.9962 426.241 72.625C425.635 72.25 425.168 71.7273 424.838 71.0568C424.512 70.3826 424.349 69.5985 424.349 68.7045C424.349 67.8106 424.512 67.0227 424.838 66.3409C425.168 65.6553 425.626 65.1212 426.213 64.7386C426.804 64.3523 427.493 64.1591 428.281 64.1591C428.736 64.1591 429.185 64.2348 429.628 64.3864C430.071 64.5379 430.474 64.7841 430.838 65.125C431.202 65.4621 431.491 65.9091 431.707 66.4659C431.923 67.0227 432.031 67.7083 432.031 68.5227V69.0909H425.304V67.9318H430.668C430.668 67.4394 430.569 67 430.372 66.6136C430.179 66.2273 429.902 65.9223 429.543 65.6989C429.187 65.4754 428.766 65.3636 428.281 65.3636C427.747 65.3636 427.285 65.4962 426.895 65.7614C426.509 66.0227 426.211 66.3636 426.003 66.7841C425.795 67.2045 425.69 67.6553 425.69 68.1364V68.9091C425.69 69.5682 425.804 70.1269 426.031 70.5852C426.262 71.0398 426.582 71.3864 426.991 71.625C427.401 71.8598 427.876 71.9773 428.418 71.9773C428.77 71.9773 429.088 71.928 429.372 71.8295C429.66 71.7273 429.908 71.5758 430.116 71.375C430.325 71.1705 430.486 70.9167 430.599 70.6136L431.895 70.9773C431.759 71.4167 431.529 71.803 431.207 72.1364C430.885 72.4659 430.488 72.7235 430.014 72.9091C429.541 73.0909 429.009 73.1818 428.418 73.1818Z" fill="black"/>
<path d="M335.409 96V84.3636H342.386V85.6136H336.818V89.5455H341.864V90.7955H336.818V96H335.409ZM345.959 84.3636V96H344.618V84.3636H345.959ZM353.915 92.4318V87.2727H355.256V96H353.915V94.5227H353.824C353.619 94.9659 353.301 95.3428 352.869 95.6534C352.438 95.9602 351.892 96.1136 351.233 96.1136C350.688 96.1136 350.203 95.9943 349.778 95.7557C349.354 95.5133 349.021 95.1496 348.778 94.6648C348.536 94.1761 348.415 93.5606 348.415 92.8182V87.2727H349.756V92.7273C349.756 93.3636 349.934 93.8712 350.29 94.25C350.65 94.6288 351.108 94.8182 351.665 94.8182C351.998 94.8182 352.337 94.733 352.682 94.5625C353.03 94.392 353.322 94.1307 353.557 93.7784C353.795 93.4261 353.915 92.9773 353.915 92.4318ZM361.507 87.2727V88.4091H356.984V87.2727H361.507ZM358.303 85.1818H359.643V93.5C359.643 93.8788 359.698 94.1629 359.808 94.3523C359.922 94.5379 360.066 94.6629 360.24 94.7273C360.418 94.7879 360.606 94.8182 360.803 94.8182C360.95 94.8182 361.071 94.8106 361.166 94.7955C361.261 94.7765 361.337 94.7614 361.393 94.75L361.666 95.9545C361.575 95.9886 361.448 96.0227 361.286 96.0568C361.123 96.0947 360.916 96.1136 360.666 96.1136C360.287 96.1136 359.916 96.0322 359.553 95.8693C359.193 95.7064 358.893 95.4583 358.655 95.125C358.42 94.7917 358.303 94.3712 358.303 93.8636V85.1818ZM367.32 87.2727V88.4091H362.797V87.2727H367.32ZM364.115 85.1818H365.456V93.5C365.456 93.8788 365.511 94.1629 365.621 94.3523C365.734 94.5379 365.878 94.6629 366.053 94.7273C366.231 94.7879 366.418 94.8182 366.615 94.8182C366.763 94.8182 366.884 94.8106 366.979 94.7955C367.073 94.7765 367.149 94.7614 367.206 94.75L367.479 95.9545C367.388 95.9886 367.261 96.0227 367.098 96.0568C366.935 96.0947 366.729 96.1136 366.479 96.1136C366.1 96.1136 365.729 96.0322 365.365 95.8693C365.005 95.7064 364.706 95.4583 364.467 95.125C364.232 94.7917 364.115 94.3712 364.115 93.8636V85.1818ZM372.902 96.1818C372.061 96.1818 371.336 95.9962 370.726 95.625C370.12 95.25 369.652 94.7273 369.322 94.0568C368.997 93.3826 368.834 92.5985 368.834 91.7045C368.834 90.8106 368.997 90.0227 369.322 89.3409C369.652 88.6553 370.11 88.1212 370.697 87.7386C371.288 87.3523 371.978 87.1591 372.766 87.1591C373.22 87.1591 373.669 87.2348 374.112 87.3864C374.555 87.5379 374.959 87.7841 375.322 88.125C375.686 88.4621 375.976 88.9091 376.192 89.4659C376.408 90.0227 376.516 90.7083 376.516 91.5227V92.0909H369.788V90.9318H375.152C375.152 90.4394 375.054 90 374.857 89.6136C374.663 89.2273 374.387 88.9223 374.027 88.6989C373.671 88.4754 373.25 88.3636 372.766 88.3636C372.232 88.3636 371.769 88.4962 371.379 88.7614C370.993 89.0227 370.696 89.3636 370.487 89.7841C370.279 90.2045 370.175 90.6553 370.175 91.1364V91.9091C370.175 92.5682 370.288 93.1269 370.516 93.5852C370.747 94.0398 371.067 94.3864 371.476 94.625C371.885 94.8598 372.36 94.9773 372.902 94.9773C373.254 94.9773 373.572 94.928 373.857 94.8295C374.144 94.7273 374.393 94.5758 374.601 94.375C374.809 94.1705 374.97 93.9167 375.084 93.6136L376.379 93.9773C376.243 94.4167 376.014 94.803 375.692 95.1364C375.37 95.4659 374.972 95.7235 374.499 95.9091C374.025 96.0909 373.493 96.1818 372.902 96.1818ZM378.555 96V87.2727H379.851V88.5909H379.942C380.101 88.1591 380.389 87.8087 380.805 87.5398C381.222 87.2708 381.692 87.1364 382.214 87.1364C382.313 87.1364 382.436 87.1383 382.584 87.142C382.732 87.1458 382.843 87.1515 382.919 87.1591V88.5227C382.874 88.5114 382.769 88.4943 382.607 88.4716C382.447 88.4451 382.279 88.4318 382.101 88.4318C381.677 88.4318 381.298 88.5208 380.964 88.6989C380.635 88.8731 380.374 89.1155 380.18 89.4261C379.991 89.733 379.896 90.0833 379.896 90.4773V96H378.555Z" fill="black"/>
<path d="M339.864 107.364H341.273V115.682C341.273 116.424 341.136 117.055 340.864 117.574C340.591 118.093 340.206 118.487 339.71 118.756C339.214 119.025 338.629 119.159 337.955 119.159C337.318 119.159 336.752 119.044 336.256 118.812C335.759 118.578 335.369 118.244 335.085 117.812C334.801 117.381 334.659 116.867 334.659 116.273H336.045C336.045 116.602 336.127 116.89 336.29 117.136C336.456 117.379 336.684 117.568 336.972 117.705C337.259 117.841 337.587 117.909 337.955 117.909C338.36 117.909 338.705 117.824 338.989 117.653C339.273 117.483 339.489 117.233 339.636 116.903C339.788 116.57 339.864 116.163 339.864 115.682V107.364ZM347.574 119.182C346.733 119.182 346.008 118.996 345.398 118.625C344.792 118.25 344.324 117.727 343.994 117.057C343.669 116.383 343.506 115.598 343.506 114.705C343.506 113.811 343.669 113.023 343.994 112.341C344.324 111.655 344.782 111.121 345.369 110.739C345.96 110.352 346.65 110.159 347.438 110.159C347.892 110.159 348.341 110.235 348.784 110.386C349.227 110.538 349.631 110.784 349.994 111.125C350.358 111.462 350.648 111.909 350.864 112.466C351.08 113.023 351.188 113.708 351.188 114.523V115.091H344.46V113.932H349.824C349.824 113.439 349.725 113 349.528 112.614C349.335 112.227 349.059 111.922 348.699 111.699C348.343 111.475 347.922 111.364 347.438 111.364C346.903 111.364 346.441 111.496 346.051 111.761C345.665 112.023 345.367 112.364 345.159 112.784C344.951 113.205 344.847 113.655 344.847 114.136V114.909C344.847 115.568 344.96 116.127 345.188 116.585C345.419 117.04 345.739 117.386 346.148 117.625C346.557 117.86 347.032 117.977 347.574 117.977C347.926 117.977 348.244 117.928 348.528 117.83C348.816 117.727 349.064 117.576 349.273 117.375C349.481 117.17 349.642 116.917 349.756 116.614L351.051 116.977C350.915 117.417 350.686 117.803 350.364 118.136C350.042 118.466 349.644 118.723 349.17 118.909C348.697 119.091 348.165 119.182 347.574 119.182ZM357.023 110.273V111.409H352.5V110.273H357.023ZM353.818 108.182H355.159V116.5C355.159 116.879 355.214 117.163 355.324 117.352C355.438 117.538 355.581 117.663 355.756 117.727C355.934 117.788 356.121 117.818 356.318 117.818C356.466 117.818 356.587 117.811 356.682 117.795C356.777 117.777 356.852 117.761 356.909 117.75L357.182 118.955C357.091 118.989 356.964 119.023 356.801 119.057C356.638 119.095 356.432 119.114 356.182 119.114C355.803 119.114 355.432 119.032 355.068 118.869C354.708 118.706 354.409 118.458 354.17 118.125C353.936 117.792 353.818 117.371 353.818 116.864V108.182ZM359.04 122.273V110.273H360.335V111.659H360.494C360.593 111.508 360.729 111.314 360.903 111.08C361.081 110.841 361.335 110.629 361.665 110.443C361.998 110.254 362.449 110.159 363.017 110.159C363.752 110.159 364.4 110.343 364.96 110.71C365.521 111.078 365.958 111.598 366.273 112.273C366.587 112.947 366.744 113.742 366.744 114.659C366.744 115.583 366.587 116.384 366.273 117.062C365.958 117.737 365.523 118.259 364.966 118.631C364.409 118.998 363.767 119.182 363.04 119.182C362.479 119.182 362.03 119.089 361.693 118.903C361.356 118.714 361.097 118.5 360.915 118.261C360.733 118.019 360.593 117.818 360.494 117.659H360.381V122.273H359.04ZM360.358 114.636C360.358 115.295 360.455 115.877 360.648 116.381C360.841 116.881 361.123 117.273 361.494 117.557C361.866 117.837 362.32 117.977 362.858 117.977C363.419 117.977 363.886 117.83 364.261 117.534C364.64 117.235 364.924 116.833 365.114 116.33C365.307 115.822 365.403 115.258 365.403 114.636C365.403 114.023 365.309 113.47 365.119 112.977C364.934 112.481 364.652 112.089 364.273 111.801C363.898 111.509 363.426 111.364 362.858 111.364C362.313 111.364 361.854 111.502 361.483 111.778C361.112 112.051 360.831 112.434 360.642 112.926C360.453 113.415 360.358 113.985 360.358 114.636ZM371.358 119.205C370.805 119.205 370.303 119.1 369.852 118.892C369.402 118.68 369.044 118.375 368.778 117.977C368.513 117.576 368.381 117.091 368.381 116.523C368.381 116.023 368.479 115.617 368.676 115.307C368.873 114.992 369.136 114.746 369.466 114.568C369.795 114.39 370.159 114.258 370.557 114.17C370.958 114.08 371.362 114.008 371.767 113.955C372.297 113.886 372.727 113.835 373.057 113.801C373.39 113.763 373.633 113.701 373.784 113.614C373.939 113.527 374.017 113.375 374.017 113.159V113.114C374.017 112.553 373.864 112.117 373.557 111.807C373.254 111.496 372.794 111.341 372.176 111.341C371.536 111.341 371.034 111.481 370.67 111.761C370.307 112.042 370.051 112.341 369.903 112.659L368.631 112.205C368.858 111.674 369.161 111.261 369.54 110.966C369.922 110.667 370.339 110.458 370.79 110.341C371.244 110.22 371.691 110.159 372.131 110.159C372.411 110.159 372.733 110.193 373.097 110.261C373.464 110.326 373.818 110.46 374.159 110.665C374.504 110.869 374.79 111.178 375.017 111.591C375.244 112.004 375.358 112.557 375.358 113.25V119H374.017V117.818H373.949C373.858 118.008 373.706 118.21 373.494 118.426C373.282 118.642 373 118.826 372.648 118.977C372.295 119.129 371.866 119.205 371.358 119.205ZM371.562 118C372.093 118 372.54 117.896 372.903 117.688C373.271 117.479 373.547 117.21 373.733 116.881C373.922 116.551 374.017 116.205 374.017 115.841V114.614C373.96 114.682 373.835 114.744 373.642 114.801C373.453 114.854 373.233 114.902 372.983 114.943C372.737 114.981 372.496 115.015 372.261 115.045C372.03 115.072 371.843 115.095 371.699 115.114C371.35 115.159 371.025 115.233 370.722 115.335C370.422 115.434 370.18 115.583 369.994 115.784C369.813 115.981 369.722 116.25 369.722 116.591C369.722 117.057 369.894 117.409 370.239 117.648C370.587 117.883 371.028 118 371.562 118ZM381.351 119.182C380.533 119.182 379.828 118.989 379.237 118.602C378.646 118.216 378.192 117.684 377.874 117.006C377.555 116.328 377.396 115.553 377.396 114.682C377.396 113.795 377.559 113.013 377.885 112.335C378.214 111.653 378.673 111.121 379.26 110.739C379.851 110.352 380.54 110.159 381.328 110.159C381.942 110.159 382.495 110.273 382.987 110.5C383.48 110.727 383.883 111.045 384.197 111.455C384.512 111.864 384.707 112.341 384.783 112.886H383.442C383.339 112.489 383.112 112.136 382.76 111.83C382.411 111.519 381.942 111.364 381.351 111.364C380.828 111.364 380.37 111.5 379.976 111.773C379.586 112.042 379.281 112.422 379.061 112.915C378.845 113.403 378.737 113.977 378.737 114.636C378.737 115.311 378.843 115.898 379.055 116.398C379.271 116.898 379.574 117.286 379.964 117.562C380.358 117.839 380.821 117.977 381.351 117.977C381.699 117.977 382.016 117.917 382.3 117.795C382.584 117.674 382.824 117.5 383.021 117.273C383.218 117.045 383.358 116.773 383.442 116.455H384.783C384.707 116.97 384.519 117.434 384.22 117.847C383.925 118.256 383.533 118.581 383.044 118.824C382.559 119.062 381.995 119.182 381.351 119.182ZM387.993 115.818L387.97 114.159H388.243L392.061 110.273H393.72L389.652 114.386H389.538L387.993 115.818ZM386.743 119V107.364H388.084V119H386.743ZM392.288 119L388.879 114.682L389.834 113.75L393.993 119H392.288ZM404.946 113.386V114.636H399.855V113.386H404.946ZM344.773 130H343.364C343.28 129.595 343.134 129.239 342.926 128.932C342.722 128.625 342.472 128.367 342.176 128.159C341.884 127.947 341.561 127.788 341.205 127.682C340.848 127.576 340.477 127.523 340.091 127.523C339.386 127.523 338.748 127.701 338.176 128.057C337.608 128.413 337.155 128.938 336.818 129.631C336.485 130.324 336.318 131.174 336.318 132.182C336.318 133.189 336.485 134.04 336.818 134.733C337.155 135.426 337.608 135.951 338.176 136.307C338.748 136.663 339.386 136.841 340.091 136.841C340.477 136.841 340.848 136.788 341.205 136.682C341.561 136.576 341.884 136.419 342.176 136.21C342.472 135.998 342.722 135.739 342.926 135.432C343.134 135.121 343.28 134.765 343.364 134.364H344.773C344.667 134.958 344.473 135.491 344.193 135.96C343.913 136.43 343.564 136.83 343.148 137.159C342.731 137.485 342.263 137.733 341.744 137.903C341.229 138.074 340.678 138.159 340.091 138.159C339.098 138.159 338.216 137.917 337.443 137.432C336.67 136.947 336.063 136.258 335.619 135.364C335.176 134.47 334.955 133.409 334.955 132.182C334.955 130.955 335.176 129.894 335.619 129C336.063 128.106 336.67 127.417 337.443 126.932C338.216 126.447 339.098 126.205 340.091 126.205C340.678 126.205 341.229 126.29 341.744 126.46C342.263 126.631 342.731 126.881 343.148 127.21C343.564 127.536 343.913 127.934 344.193 128.403C344.473 128.869 344.667 129.402 344.773 130ZM350.413 138.182C349.625 138.182 348.934 137.994 348.339 137.619C347.749 137.244 347.286 136.72 346.953 136.045C346.624 135.371 346.459 134.583 346.459 133.682C346.459 132.773 346.624 131.979 346.953 131.301C347.286 130.623 347.749 130.097 348.339 129.722C348.934 129.347 349.625 129.159 350.413 129.159C351.201 129.159 351.891 129.347 352.482 129.722C353.076 130.097 353.538 130.623 353.868 131.301C354.201 131.979 354.368 132.773 354.368 133.682C354.368 134.583 354.201 135.371 353.868 136.045C353.538 136.72 353.076 137.244 352.482 137.619C351.891 137.994 351.201 138.182 350.413 138.182ZM350.413 136.977C351.012 136.977 351.504 136.824 351.891 136.517C352.277 136.21 352.563 135.807 352.749 135.307C352.934 134.807 353.027 134.265 353.027 133.682C353.027 133.098 352.934 132.555 352.749 132.051C352.563 131.547 352.277 131.14 351.891 130.83C351.504 130.519 351.012 130.364 350.413 130.364C349.815 130.364 349.322 130.519 348.936 130.83C348.55 131.14 348.264 131.547 348.078 132.051C347.893 132.555 347.8 133.098 347.8 133.682C347.8 134.265 347.893 134.807 348.078 135.307C348.264 135.807 348.55 136.21 348.936 136.517C349.322 136.824 349.815 136.977 350.413 136.977ZM356.415 138V129.273H357.71V130.636H357.824C358.006 130.17 358.299 129.809 358.705 129.551C359.11 129.29 359.597 129.159 360.165 129.159C360.741 129.159 361.22 129.29 361.602 129.551C361.989 129.809 362.29 130.17 362.506 130.636H362.597C362.82 130.186 363.155 129.828 363.602 129.562C364.049 129.294 364.585 129.159 365.21 129.159C365.991 129.159 366.629 129.403 367.125 129.892C367.621 130.377 367.869 131.133 367.869 132.159V138H366.528V132.159C366.528 131.515 366.352 131.055 366 130.778C365.648 130.502 365.233 130.364 364.756 130.364C364.142 130.364 363.667 130.549 363.33 130.92C362.992 131.288 362.824 131.754 362.824 132.318V138H361.46V132.023C361.46 131.527 361.299 131.127 360.977 130.824C360.655 130.517 360.241 130.364 359.733 130.364C359.384 130.364 359.059 130.456 358.756 130.642C358.456 130.828 358.214 131.085 358.028 131.415C357.847 131.741 357.756 132.117 357.756 132.545V138H356.415ZM370.321 141.273V129.273H371.616V130.659H371.776C371.874 130.508 372.01 130.314 372.185 130.08C372.363 129.841 372.616 129.629 372.946 129.443C373.279 129.254 373.73 129.159 374.298 129.159C375.033 129.159 375.681 129.343 376.241 129.71C376.802 130.078 377.24 130.598 377.554 131.273C377.868 131.947 378.026 132.742 378.026 133.659C378.026 134.583 377.868 135.384 377.554 136.062C377.24 136.737 376.804 137.259 376.247 137.631C375.69 137.998 375.048 138.182 374.321 138.182C373.76 138.182 373.312 138.089 372.974 137.903C372.637 137.714 372.378 137.5 372.196 137.261C372.014 137.019 371.874 136.818 371.776 136.659H371.662V141.273H370.321ZM371.639 133.636C371.639 134.295 371.736 134.877 371.929 135.381C372.122 135.881 372.404 136.273 372.776 136.557C373.147 136.837 373.601 136.977 374.139 136.977C374.7 136.977 375.168 136.83 375.543 136.534C375.921 136.235 376.205 135.833 376.395 135.33C376.588 134.822 376.685 134.258 376.685 133.636C376.685 133.023 376.59 132.47 376.401 131.977C376.215 131.481 375.933 131.089 375.554 130.801C375.179 130.509 374.707 130.364 374.139 130.364C373.594 130.364 373.135 130.502 372.764 130.778C372.393 131.051 372.113 131.434 371.923 131.926C371.734 132.415 371.639 132.985 371.639 133.636ZM383.616 138.182C382.829 138.182 382.137 137.994 381.543 137.619C380.952 137.244 380.49 136.72 380.156 136.045C379.827 135.371 379.662 134.583 379.662 133.682C379.662 132.773 379.827 131.979 380.156 131.301C380.49 130.623 380.952 130.097 381.543 129.722C382.137 129.347 382.829 129.159 383.616 129.159C384.404 129.159 385.094 129.347 385.685 129.722C386.279 130.097 386.741 130.623 387.071 131.301C387.404 131.979 387.571 132.773 387.571 133.682C387.571 134.583 387.404 135.371 387.071 136.045C386.741 136.72 386.279 137.244 385.685 137.619C385.094 137.994 384.404 138.182 383.616 138.182ZM383.616 136.977C384.215 136.977 384.707 136.824 385.094 136.517C385.48 136.21 385.766 135.807 385.952 135.307C386.137 134.807 386.23 134.265 386.23 133.682C386.23 133.098 386.137 132.555 385.952 132.051C385.766 131.547 385.48 131.14 385.094 130.83C384.707 130.519 384.215 130.364 383.616 130.364C383.018 130.364 382.526 130.519 382.139 130.83C381.753 131.14 381.467 131.547 381.281 132.051C381.096 132.555 381.003 133.098 381.003 133.682C381.003 134.265 381.096 134.807 381.281 135.307C381.467 135.807 381.753 136.21 382.139 136.517C382.526 136.824 383.018 136.977 383.616 136.977ZM395.8 131.227L394.595 131.568C394.519 131.367 394.408 131.172 394.26 130.983C394.116 130.79 393.919 130.631 393.669 130.506C393.419 130.381 393.099 130.318 392.709 130.318C392.175 130.318 391.73 130.441 391.374 130.688C391.021 130.93 390.845 131.239 390.845 131.614C390.845 131.947 390.966 132.21 391.209 132.403C391.451 132.597 391.83 132.758 392.345 132.886L393.641 133.205C394.421 133.394 395.002 133.684 395.385 134.074C395.768 134.46 395.959 134.958 395.959 135.568C395.959 136.068 395.815 136.515 395.527 136.909C395.243 137.303 394.845 137.614 394.334 137.841C393.822 138.068 393.228 138.182 392.55 138.182C391.66 138.182 390.923 137.989 390.339 137.602C389.756 137.216 389.387 136.652 389.232 135.909L390.504 135.591C390.625 136.061 390.855 136.413 391.192 136.648C391.533 136.883 391.978 137 392.527 137C393.152 137 393.648 136.867 394.016 136.602C394.387 136.333 394.572 136.011 394.572 135.636C394.572 135.333 394.466 135.08 394.254 134.875C394.042 134.667 393.716 134.511 393.277 134.409L391.822 134.068C391.023 133.879 390.436 133.585 390.061 133.188C389.69 132.786 389.504 132.284 389.504 131.682C389.504 131.189 389.643 130.754 389.919 130.375C390.199 129.996 390.58 129.699 391.061 129.483C391.546 129.267 392.095 129.159 392.709 129.159C393.572 129.159 394.25 129.348 394.743 129.727C395.239 130.106 395.591 130.606 395.8 131.227ZM401.636 138.182C400.795 138.182 400.07 137.996 399.46 137.625C398.854 137.25 398.386 136.727 398.057 136.057C397.731 135.383 397.568 134.598 397.568 133.705C397.568 132.811 397.731 132.023 398.057 131.341C398.386 130.655 398.845 130.121 399.432 129.739C400.023 129.352 400.712 129.159 401.5 129.159C401.955 129.159 402.403 129.235 402.847 129.386C403.29 129.538 403.693 129.784 404.057 130.125C404.42 130.462 404.71 130.909 404.926 131.466C405.142 132.023 405.25 132.708 405.25 133.523V134.091H398.523V132.932H403.886C403.886 132.439 403.788 132 403.591 131.614C403.398 131.227 403.121 130.922 402.761 130.699C402.405 130.475 401.985 130.364 401.5 130.364C400.966 130.364 400.504 130.496 400.114 130.761C399.727 131.023 399.43 131.364 399.222 131.784C399.013 132.205 398.909 132.655 398.909 133.136V133.909C398.909 134.568 399.023 135.127 399.25 135.585C399.481 136.04 399.801 136.386 400.21 136.625C400.619 136.86 401.095 136.977 401.636 136.977C401.989 136.977 402.307 136.928 402.591 136.83C402.879 136.727 403.127 136.576 403.335 136.375C403.544 136.17 403.705 135.917 403.818 135.614L405.114 135.977C404.977 136.417 404.748 136.803 404.426 137.136C404.104 137.466 403.706 137.723 403.233 137.909C402.759 138.091 402.227 138.182 401.636 138.182Z" fill="black"/>
<line x1="207.995" y1="106.5" x2="102.995" y2="105.5" stroke="black"/>
<path d="M56.7727 98H55.3636C55.2803 97.5947 55.1345 97.2386 54.9261 96.9318C54.7216 96.625 54.4716 96.3674 54.1761 96.1591C53.8845 95.947 53.5606 95.7879 53.2045 95.6818C52.8485 95.5758 52.4773 95.5227 52.0909 95.5227C51.3864 95.5227 50.7481 95.7008 50.1761 96.0568C49.608 96.4129 49.1553 96.9375 48.8182 97.6307C48.4848 98.3239 48.3182 99.1742 48.3182 100.182C48.3182 101.189 48.4848 102.04 48.8182 102.733C49.1553 103.426 49.608 103.951 50.1761 104.307C50.7481 104.663 51.3864 104.841 52.0909 104.841C52.4773 104.841 52.8485 104.788 53.2045 104.682C53.5606 104.576 53.8845 104.419 54.1761 104.21C54.4716 103.998 54.7216 103.739 54.9261 103.432C55.1345 103.121 55.2803 102.765 55.3636 102.364H56.7727C56.6667 102.958 56.4735 103.491 56.1932 103.96C55.9129 104.43 55.5644 104.83 55.1477 105.159C54.7311 105.485 54.2633 105.733 53.7443 105.903C53.2292 106.074 52.678 106.159 52.0909 106.159C51.0985 106.159 50.2159 105.917 49.4432 105.432C48.6705 104.947 48.0625 104.258 47.6193 103.364C47.1761 102.47 46.9545 101.409 46.9545 100.182C46.9545 98.9545 47.1761 97.8939 47.6193 97C48.0625 96.1061 48.6705 95.4167 49.4432 94.9318C50.2159 94.447 51.0985 94.2045 52.0909 94.2045C52.678 94.2045 53.2292 94.2898 53.7443 94.4602C54.2633 94.6307 54.7311 94.8807 55.1477 95.2102C55.5644 95.536 55.9129 95.9337 56.1932 96.4034C56.4735 96.8693 56.6667 97.4015 56.7727 98ZM62.9815 93.8182L59.2315 107.75H58.0043L61.7543 93.8182H62.9815ZM74.1165 98H72.7074C72.6241 97.5947 72.4782 97.2386 72.2699 96.9318C72.0653 96.625 71.8153 96.3674 71.5199 96.1591C71.2282 95.947 70.9044 95.7879 70.5483 95.6818C70.1922 95.5758 69.821 95.5227 69.4347 95.5227C68.7301 95.5227 68.0919 95.7008 67.5199 96.0568C66.9517 96.4129 66.4991 96.9375 66.1619 97.6307C65.8286 98.3239 65.6619 99.1742 65.6619 100.182C65.6619 101.189 65.8286 102.04 66.1619 102.733C66.4991 103.426 66.9517 103.951 67.5199 104.307C68.0919 104.663 68.7301 104.841 69.4347 104.841C69.821 104.841 70.1922 104.788 70.5483 104.682C70.9044 104.576 71.2282 104.419 71.5199 104.21C71.8153 103.998 72.0653 103.739 72.2699 103.432C72.4782 103.121 72.6241 102.765 72.7074 102.364H74.1165C74.0104 102.958 73.8172 103.491 73.5369 103.96C73.2566 104.43 72.9081 104.83 72.4915 105.159C72.0748 105.485 71.607 105.733 71.0881 105.903C70.5729 106.074 70.0218 106.159 69.4347 106.159C68.4422 106.159 67.5597 105.917 66.7869 105.432C66.0142 104.947 65.4063 104.258 64.9631 103.364C64.5199 102.47 64.2983 101.409 64.2983 100.182C64.2983 98.9545 64.5199 97.8939 64.9631 97C65.4063 96.1061 66.0142 95.4167 66.7869 94.9318C67.5597 94.447 68.4422 94.2045 69.4347 94.2045C70.0218 94.2045 70.5729 94.2898 71.0881 94.4602C71.607 94.6307 72.0748 94.8807 72.4915 95.2102C72.9081 95.536 73.2566 95.9337 73.5369 96.4034C73.8172 96.8693 74.0104 97.4015 74.1165 98ZM79.6207 103.955V96.4545H80.8935V103.955H79.6207ZM76.5071 100.841V99.5682H84.0071V100.841H76.5071ZM90.1676 103.955V96.4545H91.4403V103.955H90.1676ZM87.054 100.841V99.5682H94.554V100.841H87.054Z" fill="black"/>
<line x1="207.995" y1="175.5" x2="102.995" y2="174.5" stroke="black"/>
<path d="M47.4091 175V163.364H51.3409C52.25 163.364 52.9962 163.519 53.5795 163.83C54.1629 164.136 54.5947 164.559 54.875 165.097C55.1553 165.634 55.2955 166.246 55.2955 166.932C55.2955 167.617 55.1553 168.225 54.875 168.756C54.5947 169.286 54.1648 169.703 53.5852 170.006C53.0057 170.305 52.2652 170.455 51.3636 170.455H48.1818V169.182H51.3182C51.9394 169.182 52.4394 169.091 52.8182 168.909C53.2008 168.727 53.4773 168.47 53.6477 168.136C53.822 167.799 53.9091 167.398 53.9091 166.932C53.9091 166.466 53.822 166.059 53.6477 165.71C53.4735 165.362 53.1951 165.093 52.8125 164.903C52.4299 164.71 51.9242 164.614 51.2955 164.614H48.8182V175H47.4091ZM52.8864 169.773L55.75 175H54.1136L51.2955 169.773H52.8864ZM62.9616 171.432V166.273H64.3026V175H62.9616V173.523H62.8707C62.6662 173.966 62.348 174.343 61.9162 174.653C61.4844 174.96 60.9389 175.114 60.2798 175.114C59.7344 175.114 59.2495 174.994 58.8253 174.756C58.401 174.513 58.0677 174.15 57.8253 173.665C57.5829 173.176 57.4616 172.561 57.4616 171.818V166.273H58.8026V171.727C58.8026 172.364 58.9806 172.871 59.3366 173.25C59.6965 173.629 60.1548 173.818 60.7116 173.818C61.045 173.818 61.384 173.733 61.7287 173.562C62.0772 173.392 62.3688 173.131 62.6037 172.778C62.8423 172.426 62.9616 171.977 62.9616 171.432ZM66.9403 175V163.364H68.2812V167.659H68.3949C68.4934 167.508 68.6297 167.314 68.804 167.08C68.982 166.841 69.2358 166.629 69.5653 166.443C69.8987 166.254 70.3494 166.159 70.9176 166.159C71.6525 166.159 72.3002 166.343 72.8608 166.71C73.4214 167.078 73.8589 167.598 74.1733 168.273C74.4877 168.947 74.6449 169.742 74.6449 170.659C74.6449 171.583 74.4877 172.384 74.1733 173.062C73.8589 173.737 73.4233 174.259 72.8665 174.631C72.3097 174.998 71.6676 175.182 70.9403 175.182C70.3797 175.182 69.9309 175.089 69.5938 174.903C69.2566 174.714 68.9972 174.5 68.8153 174.261C68.6335 174.019 68.4934 173.818 68.3949 173.659H68.2358V175H66.9403ZM68.2585 170.636C68.2585 171.295 68.3551 171.877 68.5483 172.381C68.7415 172.881 69.0237 173.273 69.3949 173.557C69.7661 173.837 70.2206 173.977 70.7585 173.977C71.3191 173.977 71.7869 173.83 72.1619 173.534C72.5407 173.235 72.8248 172.833 73.0142 172.33C73.2074 171.822 73.304 171.258 73.304 170.636C73.304 170.023 73.2093 169.47 73.0199 168.977C72.8343 168.481 72.5521 168.089 72.1733 167.801C71.7983 167.509 71.3267 167.364 70.7585 167.364C70.2131 167.364 69.7547 167.502 69.3835 167.778C69.0123 168.051 68.732 168.434 68.5426 168.926C68.3532 169.415 68.2585 169.985 68.2585 170.636ZM77.2472 178.273C77.0199 178.273 76.8172 178.254 76.6392 178.216C76.4612 178.182 76.3381 178.148 76.2699 178.114L76.6108 176.932C76.9366 177.015 77.2244 177.045 77.4744 177.023C77.7244 177 77.946 176.888 78.1392 176.688C78.3362 176.491 78.5161 176.17 78.679 175.727L78.929 175.045L75.7017 166.273H77.1562L79.5653 173.227H79.6562L82.0653 166.273H83.5199L79.8153 176.273C79.6487 176.723 79.4422 177.097 79.196 177.392C78.9498 177.691 78.6638 177.913 78.3381 178.057C78.0161 178.201 77.6525 178.273 77.2472 178.273Z" fill="black"/>
<line x1="207.995" y1="49.5" x2="102.995" y2="48.5" stroke="black"/>
<path d="M1.88636 51H0.409091L4.68182 39.3636H6.13636L10.4091 51H8.93182L5.45455 41.2045H5.36364L1.88636 51ZM2.43182 46.4545H8.38636V47.7045H2.43182V46.4545ZM18.5852 42.2727C18.517 41.697 18.2405 41.25 17.7557 40.9318C17.2708 40.6136 16.6761 40.4545 15.9716 40.4545C15.4564 40.4545 15.0057 40.5379 14.6193 40.7045C14.2367 40.8712 13.9375 41.1004 13.7216 41.392C13.5095 41.6837 13.4034 42.0152 13.4034 42.3864C13.4034 42.697 13.4773 42.964 13.625 43.1875C13.7765 43.4072 13.9697 43.5909 14.2045 43.7386C14.4394 43.8826 14.6856 44.0019 14.9432 44.0966C15.2008 44.1875 15.4375 44.2614 15.6534 44.3182L16.8352 44.6364C17.1383 44.7159 17.4754 44.8258 17.8466 44.9659C18.2216 45.1061 18.5795 45.2973 18.9205 45.5398C19.2652 45.7784 19.5492 46.0852 19.7727 46.4602C19.9962 46.8352 20.108 47.2955 20.108 47.8409C20.108 48.4697 19.9432 49.0379 19.6136 49.5455C19.2879 50.053 18.8106 50.4564 18.1818 50.7557C17.5568 51.0549 16.7973 51.2045 15.9034 51.2045C15.0701 51.2045 14.3485 51.0701 13.7386 50.8011C13.1326 50.5322 12.6553 50.1572 12.3068 49.6761C11.9621 49.1951 11.767 48.6364 11.7216 48H13.1761C13.214 48.4394 13.3617 48.803 13.6193 49.0909C13.8807 49.375 14.2102 49.5871 14.608 49.7273C15.0095 49.8636 15.4413 49.9318 15.9034 49.9318C16.4413 49.9318 16.9242 49.8447 17.3523 49.6705C17.7803 49.4924 18.1193 49.2462 18.3693 48.9318C18.6193 48.6136 18.7443 48.2424 18.7443 47.8182C18.7443 47.4318 18.6364 47.1174 18.4205 46.875C18.2045 46.6326 17.9205 46.4356 17.5682 46.2841C17.2159 46.1326 16.8352 46 16.4261 45.8864L14.9943 45.4773C14.0852 45.2159 13.3655 44.8428 12.8352 44.358C12.3049 43.8731 12.0398 43.2386 12.0398 42.4545C12.0398 41.803 12.2159 41.2348 12.5682 40.75C12.9242 40.2614 13.4015 39.8826 14 39.6136C14.6023 39.3409 15.2746 39.2045 16.017 39.2045C16.767 39.2045 17.4337 39.339 18.017 39.608C18.6004 39.8731 19.0625 40.2367 19.4034 40.6989C19.7481 41.161 19.9299 41.6856 19.9489 42.2727H18.5852ZM28.7884 42.2727C28.7202 41.697 28.4437 41.25 27.9588 40.9318C27.474 40.6136 26.8793 40.4545 26.1747 40.4545C25.6596 40.4545 25.2088 40.5379 24.8224 40.7045C24.4399 40.8712 24.1406 41.1004 23.9247 41.392C23.7126 41.6837 23.6065 42.0152 23.6065 42.3864C23.6065 42.697 23.6804 42.964 23.8281 43.1875C23.9796 43.4072 24.1728 43.5909 24.4077 43.7386C24.6425 43.8826 24.8887 44.0019 25.1463 44.0966C25.4039 44.1875 25.6406 44.2614 25.8565 44.3182L27.0384 44.6364C27.3414 44.7159 27.6785 44.8258 28.0497 44.9659C28.4247 45.1061 28.7827 45.2973 29.1236 45.5398C29.4683 45.7784 29.7524 46.0852 29.9759 46.4602C30.1993 46.8352 30.3111 47.2955 30.3111 47.8409C30.3111 48.4697 30.1463 49.0379 29.8168 49.5455C29.491 50.053 29.0137 50.4564 28.3849 50.7557C27.7599 51.0549 27.0005 51.2045 26.1065 51.2045C25.2732 51.2045 24.5516 51.0701 23.9418 50.8011C23.3357 50.5322 22.8584 50.1572 22.5099 49.6761C22.1652 49.1951 21.9702 48.6364 21.9247 48H23.3793C23.4171 48.4394 23.5649 48.803 23.8224 49.0909C24.0838 49.375 24.4134 49.5871 24.8111 49.7273C25.2126 49.8636 25.6444 49.9318 26.1065 49.9318C26.6444 49.9318 27.1274 49.8447 27.5554 49.6705C27.9834 49.4924 28.3224 49.2462 28.5724 48.9318C28.8224 48.6136 28.9474 48.2424 28.9474 47.8182C28.9474 47.4318 28.8395 47.1174 28.6236 46.875C28.4077 46.6326 28.1236 46.4356 27.7713 46.2841C27.419 46.1326 27.0384 46 26.6293 45.8864L25.1974 45.4773C24.2884 45.2159 23.5687 44.8428 23.0384 44.358C22.508 43.8731 22.2429 43.2386 22.2429 42.4545C22.2429 41.803 22.419 41.2348 22.7713 40.75C23.1274 40.2614 23.6046 39.8826 24.2031 39.6136C24.8054 39.3409 25.4777 39.2045 26.2202 39.2045C26.9702 39.2045 27.6368 39.339 28.2202 39.608C28.8035 39.8731 29.2656 40.2367 29.6065 40.6989C29.9512 41.161 30.133 41.6856 30.152 42.2727H28.7884ZM32.6278 51V39.3636H39.6506V40.6136H34.0369V44.5455H39.2869V45.7955H34.0369V49.75H39.7415V51H32.6278ZM42.1903 39.3636H43.8722L47.8267 49.0227H47.9631L51.9176 39.3636H53.5994V51H52.2812V42.1591H52.1676L48.5312 51H47.2585L43.6222 42.1591H43.5085V51H42.1903V39.3636ZM56.4247 51V39.3636H60.4929C61.3035 39.3636 61.9721 39.5038 62.4986 39.7841C63.0251 40.0606 63.4171 40.4337 63.6747 40.9034C63.9323 41.3693 64.0611 41.8864 64.0611 42.4545C64.0611 42.9545 63.9721 43.3674 63.794 43.6932C63.6198 44.0189 63.3887 44.2765 63.1009 44.4659C62.8168 44.6553 62.508 44.7955 62.1747 44.8864V45C62.5308 45.0227 62.8887 45.1477 63.2486 45.375C63.6084 45.6023 63.9096 45.928 64.152 46.3523C64.3944 46.7765 64.5156 47.2955 64.5156 47.9091C64.5156 48.4924 64.383 49.017 64.1179 49.483C63.8527 49.9489 63.4342 50.3182 62.8622 50.5909C62.2902 50.8636 61.5459 51 60.6293 51H56.4247ZM57.8338 49.75H60.6293C61.5497 49.75 62.2031 49.572 62.5895 49.2159C62.9796 48.8561 63.1747 48.4205 63.1747 47.9091C63.1747 47.5152 63.0743 47.1515 62.8736 46.8182C62.6728 46.4811 62.3868 46.2121 62.0156 46.0114C61.6444 45.8068 61.205 45.7045 60.6974 45.7045H57.8338V49.75ZM57.8338 44.4773H60.4474C60.8717 44.4773 61.2543 44.3939 61.5952 44.2273C61.9399 44.0606 62.2126 43.8258 62.4134 43.5227C62.6179 43.2197 62.7202 42.8636 62.7202 42.4545C62.7202 41.9432 62.5421 41.5095 62.1861 41.1534C61.83 40.7936 61.2656 40.6136 60.4929 40.6136H57.8338V44.4773ZM66.831 51V39.3636H68.2401V49.75H73.6491V51H66.831ZM75.831 51V39.3636H82.8537V40.6136H77.2401V44.5455H82.4901V45.7955H77.2401V49.75H82.9446V51H75.831ZM85.3935 51V39.3636H89.3253C90.2344 39.3636 90.9806 39.5189 91.5639 39.8295C92.1473 40.1364 92.5791 40.5587 92.8594 41.0966C93.1397 41.6345 93.2798 42.2462 93.2798 42.9318C93.2798 43.6174 93.1397 44.2254 92.8594 44.7557C92.5791 45.286 92.1491 45.7027 91.5696 46.0057C90.9901 46.3049 90.2495 46.4545 89.348 46.4545H86.1662V45.1818H89.3026C89.9238 45.1818 90.4238 45.0909 90.8026 44.9091C91.1851 44.7273 91.4616 44.4697 91.6321 44.1364C91.8063 43.7992 91.8935 43.3977 91.8935 42.9318C91.8935 42.4659 91.8063 42.0587 91.6321 41.7102C91.4579 41.3617 91.1795 41.0928 90.7969 40.9034C90.4143 40.7102 89.9086 40.6136 89.2798 40.6136H86.8026V51H85.3935ZM90.8707 45.7727L93.7344 51H92.098L89.2798 45.7727H90.8707Z" fill="black"/>
</g>
<defs>
<clipPath id="clip0_0_1">
<rect width="1440" height="1024" fill="white" transform="translate(-779 -189)"/>
</clipPath>
</defs>
</svg>
